<svg xmlns="http://www.w3.org/2000/svg" viewBox="0 0 512 512"><!--!Font Awesome Pro 6.5.2 by @fontawesome - https://fontawesome.com License - https://fontawesome.com/license (Commercial License) Copyright 2024 Fonticons, Inc.--><path fill="" d="M142.4 417.2c4.3-3.1 9.9-3.9 14.9-2.1 30 10.9 63.4 17 98.7 17 135.8 0 240-88.9 240-192S391.8 48 256 48 16 136.9 16 240c0 40.7 15.9 78.8 43.7 110.3 2.9 3.2 4.3 7.5 3.9 11.8-2.2 27.7-12.9 52-23.6 69.9-6 10-12 18-16.5 23.5l-12.2-10 12.2 10c-2.2 2.7-4.1 4.9-5.4 6.3-.7.7-1.2 1.3-1.5 1.6l-.1.1-.3.3-.2.2c25.6 0 52.3-8 75.2-18 21.8-9.5 40.3-20.9 51.2-28.8zM4.7 452.7l.3-.3c.3-.3.7-.7 1.3-1.4 1.1-1.2 2.8-3.1 4.9-5.7 4.1-5 9.6-12.4 15.2-21.6 10-16.6 19.5-38.4 21.4-62.9C17.7 326.8 0 285.1 0 240 0 125.1 114.6 32 256 32s256 93.1 256 208-114.6 208-256 208c-37.1 0-72.3-6.4-104.1-17.9-11.9 8.7-31.3 20.6-54.3 30.6C73.6 471.1 44.7 480 16 480c-6.5 0-12.3-3.9-14.8-9.9s-1.1-12.8 3.4-17.4z"/></svg>