<svg xmlns="http://www.w3.org/2000/svg" xml:space="preserve" id="Laag_1" x="0" y="0" style="enable-background:new 0 0 33 45.9" version="1.1" viewBox="0 0 33 45.9"><style>.st0{fill}</style><path d="M30.7 45.9H2.2c-1.2 0-2.2-1-2.2-2.2V6.6c0-1.2 1-2.2 2.2-2.2h28.5c1.2 0 2.2 1 2.2 2.2v37.1c.1 1.2-.9 2.2-2.2 2.2zM2.2 5.4c-.6 0-1.2.5-1.2 1.2v37.1c0 .7.5 1.2 1.2 1.2h28.5c.7 0 1.2-.5 1.2-1.2V6.6c0-.7-.5-1.2-1.2-1.2H2.2z" class="st0"/><path d="M19.1 10.9c0 1.4-1.2 2.6-2.6 2.6s-2.6-1.2-2.6-2.6 1.2-2.6 2.6-2.6 2.6 1.2 2.6 2.6zm-.9-.5H17V9.2h-1v1.3h-1.3v.9H16v1.3h1v-1.3h1.3v-1zM28.2 16.6H14.8c-.3 0-.5-.2-.5-.5s.2-.5.5-.5h13.4c.3 0 .5.2.5.5s-.2.5-.5.5zM28.2 19.5H14.8c-.3 0-.5-.2-.5-.5s.2-.5.5-.5h13.4c.3 0 .5.2.5.5s-.2.5-.5.5zM11.2 21.3H4.8c-.3 0-.5-.3-.5-.5v-6.4c0-.3.3-.5.5-.5h6.4c.3 0 .5.3.5.5v6.4c.1.3-.2.5-.5.5zm-5.9-1h5.4v-5.4H5.3v5.4z" class="st0"/><path d="M7.5 19.2c-.1 0-.3-.1-.4-.2l-1.3-1.3c-.2-.2-.2-.5 0-.7s.5-.2.7 0l.9.9 2.1-2.1c.2-.2.5-.2.7 0 .2.2.2.5 0 .7L7.8 19c-.1.1-.2.2-.3.2zM28.2 27H14.8c-.3 0-.5-.2-.5-.5s.2-.5.5-.5h13.4c.3 0 .5.2.5.5s-.2.5-.5.5zM28.2 29.9H14.8c-.3 0-.5-.2-.5-.5s.2-.5.5-.5h13.4c.3 0 .5.2.5.5s-.2.5-.5.5zM11.2 31.7H4.8c-.3 0-.5-.3-.5-.5v-6.4c0-.3.3-.5.5-.5h6.4c.3 0 .5.3.5.5v6.4c.1.3-.2.5-.5.5zm-5.9-1h5.4v-5.4H5.3v5.4z" class="st0"/><path d="M7.5 29.6c-.1 0-.3-.1-.4-.2l-1.3-1.3c-.2-.2-.2-.5 0-.7s.5-.2.7 0l.9.9 2.1-2.1c.2-.2.5-.2.7 0s.2.5 0 .7l-2.5 2.5c0 .1-.1.2-.2.2zM28.2 37.4H14.8c-.3 0-.5-.2-.5-.5s.2-.5.5-.5h13.4c.3 0 .5.2.5.5s-.2.5-.5.5zM28.2 40.3H14.8c-.3 0-.5-.2-.5-.5s.2-.5.5-.5h13.4c.3 0 .5.2.5.5s-.2.5-.5.5zM11.2 42.1H4.8c-.3 0-.5-.3-.5-.5v-6.4c0-.3.3-.5.5-.5h6.4c.3 0 .5.3.5.5v6.4c.1.3-.2.5-.5.5zm-5.9-1h5.4v-5.4H5.3v5.4z" class="st0"/><path d="M7.5 39.9c-.1 0-.3-.1-.4-.2l-1.3-1.3c-.2-.2-.2-.5 0-.7s.5-.2.7 0l.9.9 2.1-2.1c.2-.2.5-.2.7 0s.2.5 0 .7l-2.5 2.5c0 .2-.1.2-.2.2zM23.3 3.3v2.6c0 .5-.4.9-.9.9H10.7c-.5 0-.9-.4-.9-.9V3.3c0-.5.4-.9.9-.9h3.4c0-1.3 1.1-2.4 2.4-2.4s2.4 1.1 2.4 2.4h3.4c.5 0 1 .4 1 .9zM16.5.6c-1 0-1.7.8-1.7 1.7S15.6 4 16.5 4s1.7-.8 1.7-1.7S17.5.6 16.5.6z" class="st0"/></svg>