<svg xmlns="http://www.w3.org/2000/svg" xml:space="preserve" id="Laag_1" x="0" y="0" style="enable-background:new 0 0 85.5 44.9" version="1.1" viewBox="0 0 85.5 44.9"><style>.st0{fill}</style><path d="M13.2 44.9c-3.1 0-5.5-2.5-5.5-5.5s2.5-5.5 5.5-5.5c3.1 0 5.5 2.5 5.5 5.5s-2.4 5.5-5.5 5.5zm0-10.1c-2.5 0-4.5 2-4.5 4.5s2 4.5 4.5 4.5 4.5-2 4.5-4.5-2-4.5-4.5-4.5z" class="st0"/><path d="M13.2 42.6c-1.8 0-3.3-1.5-3.3-3.3s1.5-3.3 3.3-3.3 3.3 1.5 3.3 3.3-1.5 3.3-3.3 3.3zm0-5.6c-1.3 0-2.3 1-2.3 2.3s1 2.3 2.3 2.3 2.3-1 2.3-2.3-1-2.3-2.3-2.3zM81.2 23.3h-2.7c-.6 0-1.2-.4-1.4-1l-.5-1.6c-.1-.2-.2-.3-.4-.3l-1.8-.2c-1.3-.1-2.2-1.2-2.2-2.5v-6.2c0-1.4 1.1-2.5 2.5-2.5h2.9c.7 0 1.2.4 1.4 1l3.7 11.3c.2.5.1 1-.2 1.3-.4.4-.8.7-1.3.7zM74.6 9.9c-.8 0-1.5.7-1.5 1.5v6.2c0 .8.6 1.4 1.3 1.5l1.8.2c.6.1 1.1.5 1.2 1l.5 1.6c.1.2.3.3.5.3h2.7c.2 0 .3-.1.4-.2.1-.1.1-.3.1-.4L78 10.3c-.1-.2-.3-.3-.5-.3h-2.9z" class="st0"/><path d="M83.7 41.9H79c-.3 0-.5-.2-.5-.5v-5.2c-1.3-2.3-3.8-3.7-6.5-3.7h-8c-.3 0-.5-.2-.5-.5v-6c0-.5.3-1 .8-1.2.1-.3.4-.6.7-.7V6.4c0-.8.6-1.4 1.3-1.4h.1l13 2c.7.1 1.3.8 1.3 1.5 0 .4-.2.8-.5 1.1l4.3 13v13.6l-.2 1.6h.7c.2 0 .3.1.4.2.1.1.1.3 0 .5l-1.3 3.1c0 .2-.2.3-.4.3zm-4.2-1h3.9l.9-2.1h-.5c-.1 0-.3-.1-.4-.2-.1-.1-.1-.3-.1-.4l.3-2.1V22.8L79.1 9.6c-.1-.2 0-.5.2-.6.2-.1.3-.3.3-.5 0-.3-.2-.5-.4-.5L66.3 6c-.2 0-.3.2-.3.4v18.1c0 .3-.2.5-.5.5-.1 0-.3.1-.3.3 0 .3-.2.5-.5.5-.1 0-.3.1-.3.3v5.5H72c3.1 0 5.9 1.7 7.4 4.4 0 .1.1.2.1.2v4.7z" class="st0"/><path d="M72.1 44.9c-3.1 0-5.5-2.5-5.5-5.5s2.5-5.5 5.5-5.5 5.5 2.5 5.5 5.5-2.5 5.5-5.5 5.5zm0-10.1c-2.5 0-4.5 2-4.5 4.5s2 4.5 4.5 4.5 4.5-2 4.5-4.5-2-4.5-4.5-4.5z" class="st0"/><path d="M72.1 42.6c-1.8 0-3.3-1.5-3.3-3.3s1.5-3.3 3.3-3.3 3.3 1.5 3.3 3.3-1.5 3.3-3.3 3.3zm0-5.6c-1.3 0-2.3 1-2.3 2.3s1 2.3 2.3 2.3 2.3-1 2.3-2.3-1-2.3-2.3-2.3zM6.5 40.6H4.7c-.7 0-1.3-.6-1.3-1.3v-4.8c0-.7.6-1.3 1.3-1.3h5.2c.2 0 .4.2.5.4.1.2 0 .5-.3.6-2 1-3.2 3-3.2 5.2 0 .3 0 .5.1.8 0 .1 0 .3-.1.4h-.4zm-1.8-6.4c-.2 0-.3.1-.3.3v4.8c0 .2.1.3.3.3H6v-.3c0-2 .9-3.9 2.3-5.2H4.7zM62.5 32.4H.5c-.3 0-.5-.2-.5-.5V.5C0 .2.2 0 .5 0h62c.2 0 .5.2.5.5v31.4c0 .3-.3.5-.5.5zM1 31.4h61V1H1v30.4zM27.2 44.9c-3.1 0-5.5-2.5-5.5-5.5s2.5-5.5 5.5-5.5 5.5 2.5 5.5 5.5-2.4 5.5-5.5 5.5zm0-10.1c-2.5 0-4.5 2-4.5 4.5s2 4.5 4.5 4.5 4.5-2 4.5-4.5-2-4.5-4.5-4.5z" class="st0"/><path d="M27.2 42.6c-1.8 0-3.3-1.5-3.3-3.3s1.5-3.3 3.3-3.3 3.3 1.5 3.3 3.3-1.5 3.3-3.3 3.3zm0-5.6c-1.3 0-2.3 1-2.3 2.3s1 2.3 2.3 2.3 2.3-1 2.3-2.3-1-2.3-2.3-2.3zM65.4 40.6H33.9c-.1 0-.3-.1-.4-.2-.1-.1-.1-.3-.1-.4 0-.3.1-.5.1-.8 0-2.2-1.2-4.2-3.2-5.2-.2-.1-.3-.3-.3-.6.1-.2.3-.4.5-.4h38.2c.2 0 .4.2.5.4.1.2 0 .5-.3.6-2 1-3.2 3-3.2 5.2 0 .3 0 .5.1.8 0 .1 0 .3-.1.4s-.2.2-.3.2zm-30.9-1h30.4v-.3c0-2 .9-3.9 2.3-5.2h-35c1.5 1.3 2.3 3.2 2.3 5.2v.3zM20.5 40.6h-.6c-.1 0-.3-.1-.4-.2-.1-.1-.1-.3-.1-.4 0-.3.1-.5.1-.8 0-2.2-1.2-4.2-3.2-5.2-.2 0-.3-.2-.3-.5.1-.2.3-.4.5-.4h7.3c.2 0 .4.2.5.4.1.2 0 .5-.3.6-1.9 1-3.2 3-3.2 5.2 0 .3 0 .5.1.8 0 .1 0 .3-.1.4 0 .1-.1.1-.3.1zm-2.4-6.4c1 .9 1.7 2 2.1 3.3.4-1.3 1.1-2.4 2.1-3.3h-4.2z" class="st0"/><path d="M63.7 36.3H35.4c-.3 0-.5-.2-.5-.5s.2-.5.5-.5h28.3c.3 0 .5.2.5.5s-.2.5-.5.5zM63.7 38.3H35.4c-.3 0-.5-.2-.5-.5s.2-.5.5-.5h28.3c.3 0 .5.2.5.5s-.2.5-.5.5z" class="st0"/></svg>