<svg viewBox="0 0 640 512" xmlns="http://www.w3.org/2000/svg"><path d="m80 80a64 64 0 1 1 128 0 64 64 0 1 1 -128 0zm144 0a80 80 0 1 0 -160 0 80 80 0 1 0 160 0zm96 64a80 80 0 1 1 0 160 80 80 0 1 1 0-160zm0 176a96 96 0 1 0 0-192 96 96 0 1 0 0 192zm-58.7 48h117.4c64.8 0 117.3 52.5 117.3 117.3 0 5.9-4.8 10.7-10.7 10.7h-330.6c-5.9 0-10.7-4.8-10.7-10.7 0-64.8 52.5-117.3 117.3-117.3zm0-16c-73.6 0-133.3 59.7-133.3 133.3 0 14.7 11.9 26.7 26.7 26.7h330.6c14.7 0 26.7-11.9 26.7-26.7 0-73.6-59.7-133.3-133.3-133.3zm250.7-336a64 64 0 1 1 0 128 64 64 0 1 1 0-128zm0 144a80 80 0 1 0 0-160 80 80 0 1 0 0 160zm24 48c48.6 0 88 39.4 88 88 0 4.4 3.6 8 8 8s8-3.6 8-8c0-57.4-46.6-104-104-104h-92c1.3 5.2 2.4 10.6 3 16zm-343 0c.7-5.4 1.7-10.8 3-16h-92c-57.4 0-104 46.6-104 104 0 4.4 3.6 8 8 8s8-3.6 8-8c0-48.6 39.4-88 88-88z"/></svg>