<svg height="34" width="35" xmlns="http://www.w3.org/2000/svg"><g fill="none" fill-rule="evenodd" stroke="black" stroke-linecap="round" stroke-linejoin="round"><path d="M10.81 31.443c1.207.025 2.396.2 3.59.352.716.091 1.441.145 2.16.231.827.1 1.655.204 2.482.297.735.083 1.474.168 2.213.236.757.07 1.51.184 2.268.258 1.334.13 2.67.485 4.006.248 1.502-.267 2.662-1.085 3.446-2.461.581-1.02.713-2.15.973-3.243.592-2.479 1.072-4.984 1.663-7.462.348-1.462 0-2.757-.82-3.912-1.021-1.442-2.464-2.081-4.256-2.103-1.282-.015-2.567-.067-3.851-.084-.358-.005-.682-.165-1.003-.314M21.207 16.726c.475-.86.903-1.754 1.447-2.566.273-.409.493-.77.553-1.277.114-.955.584-1.808.817-2.737.46-1.83.776-3.656.34-5.534-.287-1.233-.843-2.312-1.78-3.164-.66-.601-1.736-.574-2.4-.056-.977.762-1.358 1.814-1.588 3.006-.534 2.77-1.214 5.496-2.635 7.958-.625 1.084-1.428 1.932-2.6 2.373-.837.314-1.621.797-2.55.786M10.174 14.871c-.085-.217-.193-.428-.25-.652-.148-.58-.584-.72-1.075-.723a629.572 629.572 0 0 0-6.829 0c-.774.004-1.016.26-1.016 1.037-.005 5.416-.005 10.833 0 16.25 0 .776.242 1.033 1.016 1.037 2.276.013 4.553-.013 6.829.014.884.01 1.477-.947 1.127-1.679-.105-.22-.11-.475-.11-.726.003-4.41.005-8.82-.002-13.23 0-.45.147-.849.31-1.25"/></g></svg>